PathFileType	4	(X/Y/Z)	Patient5_TMGait_0pt45_1_right_13.trc.trc
DataRate	CameraRate	NumFrames	NumMarkers	Units	OrigDataRate	OrigDataStartFrame	OrigNumFrames
63.348416289593	63.348416289593	4	32	mm	63.348416289593	53	       141
Frame#	Time	R.ASIS			L.ASIS			Chest			R.Shoulder			Neck			L.Shoulder			L.Elbow			L.Wrist			R.Elbow			R.Wrist			L.Thigh.Superior			L.Thigh.Lateral			L.Thigh.Inferior			L.Patella			L.Shank.Superior			L.Shank.Lateral			L.Shank.Inferior			L.Heel			L.Midfoot.Lateral			L.Midfoot.Superior			L.Toe			R.Thigh.Superior			R.Thigh.Lateral			R.Thigh.Inferior			R.Patella			R.Shank.Superior			R.Shank.Lateral			R.Shank.Inferior			R.Heel			R.Midfoot.Lateral			R.Midfoot.Superior			R.Toe			
		X1	Y1	Z1	X2	Y2	Z2	X3	Y3	Z3	X4	Y4	Z4	X5	Y5	Z5	X6	Y6	Z6	X7	Y7	Z7	X8	Y8	Z8	X9	Y9	Z9	X10	Y10	Z10	X11	Y11	Z11	X12	Y12	Z12	X13	Y13	Z13	X14	Y14	Z14	X15	Y15	Z15	X16	Y16	Z16	X17	Y17	Z17	X18	Y18	Z18	X19	Y19	Z19	X20	Y20	Z20	X21	Y21	Z21	X22	Y22	Z22	X23	Y23	Z23	X24	Y24	Z24	X25	Y25	Z25	X26	Y26	Z26	X27	Y27	Z27	X28	Y28	Z28	X29	Y29	Z29	X30	Y30	Z30	X31	Y31	Z31	X32	Y32	Z32	

53	22.200857142857	972.947532579259	958.031887987951	607.711420003406	954.234058145368	957.163973159453	363.960297538094	1077.252745336507	1415.465344958963	499.464623684905	995.298740068236	1475.163874682558	676.052562922432	954.696374588111	1545.667550244248	497.843277820046	1004.078815028986	1494.996212342875	310.987238058822	897.539000107766	1187.527138926741	180.237207397224	987.793299653831	911.536939156017	193.497643611838	922.709839213281	1164.008817250805	832.260273891372	1130.087474668799	979.594573634115	746.654649217036	1034.560868175671	793.261535817940	340.902851532139	1003.756885085314	707.075800670077	287.110094780330	1097.722361165470	682.339110182291	348.426297708801	1149.062060899723	546.485275300741	334.993904005518	1081.611701709359	437.830826529889	354.177311358963	996.301147412266	391.242320249925	279.175660927557	1017.892623176036	328.490619884116	362.535532503060	830.948415379407	135.548697231654	359.148060021462	910.107642975708	96.210183548952	294.733058777877	1020.046242321024	133.783148124176	335.036137304232	1112.653428300624	71.932062358001	332.916435008014	947.478341667204	723.240147753507	615.016231813722	847.219374303891	659.771042226590	665.502001791303	915.071090070921	596.784022401197	586.762862603179	899.134335244247	503.995181412353	610.550551186305	849.934055042592	417.366672539811	570.181969594033	776.534898787269	351.545076737350	649.272463045194	826.617711887639	280.120885304947	564.561287871858	695.116705588873	54.244846781607	520.917076277761	771.287123971334	25.158812634119	596.253021495073	878.037694746864	87.115470125557	575.096169467774	981.730427810778	44.771477847635	578.280648395875	
54	22.216642857143	972.851336786261	956.865746750238	607.957070661332	955.755532680653	956.550380738782	363.892959949170	1080.458141196134	1414.176645910264	499.509005312108	998.287492777524	1474.909166547829	675.638928039193	958.200582470982	1544.783775155155	497.230114261334	1008.387331117111	1493.345068710304	310.608358433793	902.525922741531	1185.919158054521	179.600574004208	991.292009671376	909.466633864754	193.922842904026	924.472144482270	1164.041817832237	831.812960675050	1132.781897026079	980.588399073529	746.548077759930	1034.401809377846	791.725352082623	341.536336935970	1003.938046994161	705.536793218631	287.654533638801	1097.135358589912	680.863355290517	350.060154400023	1150.314093506228	548.839580446945	336.681777391106	1091.057574443761	438.098506566084	355.782262161488	1009.203339814644	384.544245558270	281.405309762849	1037.804395533094	323.425572853442	363.918917915320	869.478818382425	114.354373452305	362.750812847723	950.266629699910	82.830033274768	296.051253014990	1057.322334353889	129.583759732321	334.022789505660	1155.084441916386	76.216694762434	328.953674016135	944.890940345055	722.108076204246	614.574244902514	843.953652725775	659.536411241886	664.959489689009	911.216711513023	595.938143394234	586.383515172209	894.588485229292	503.311488749655	610.228879185819	844.718001600918	417.134146690248	569.817058886882	770.675858008261	351.901916991267	648.745235835497	820.672704023262	280.127943813617	564.474245692618	688.002198264615	54.333459830593	520.934914233629	764.109743841484	25.239505823615	596.242785342715	870.860152727595	87.054383522387	575.150909149296	974.491879307469	44.745686245428	578.314538838738	
55	22.232428571429	973.015519226846	955.617843164580	607.989515429171	957.948850721591	955.450065865351	363.868350464171	1083.684222818317	1412.727830387395	499.356190577891	1001.183285281519	1474.376349317751	674.958795482252	961.659319548456	1543.641987356285	496.357401106458	1012.706427634447	1491.557078945230	309.997181975344	907.552098680589	1184.084228403777	178.808329802892	995.184642998972	907.273594313161	194.068907381661	926.145787415532	1163.781241316566	831.101728349786	1135.348025103135	981.207589392136	746.250132245185	1034.213755143860	788.767549852308	341.789534404007	1003.426720097653	702.606302890681	288.146496367080	1095.901086456674	677.696807876979	351.448869386836	1150.249896245146	549.863780666004	338.492936538032	1099.358382950872	437.799462795572	357.676591867700	1021.590115433286	377.499968314165	283.825580401604	1057.107934145989	318.625363886467	365.573923543538	908.698244553742	95.256269974694	366.340333175613	990.622376890545	71.070130906048	297.854606330854	1094.013387824850	126.645018720862	333.774973129203	1196.025325902027	81.861626548696	326.400155686012	942.502453013852	720.906611726682	614.131475154981	840.750058034323	659.277087494774	664.261838973960	907.503846229238	595.045891787128	586.045145639261	890.161621549507	502.549697923562	609.935083875184	839.584028801257	416.810622656840	569.422780684361	764.808918525952	352.270183725340	648.097029620956	814.802406686564	280.089806675792	564.368924971424	680.872531764089	54.390894942196	520.918779488119	756.932183149907	25.307301740834	596.212707530126	863.667859147122	87.019530814893	575.214900103025	967.241740164594	44.718804282826	578.327692398631	
56	22.248214285714	973.516259774083	954.321449184169	607.876197823986	960.894829022444	953.872635906623	363.914174915572	1086.889707023811	1411.122682928779	499.019750437894	1003.894726779172	1473.562377902296	673.967935672493	965.038742814524	1542.246374181062	495.171523079916	1017.104068704944	1489.625231297530	309.130938941761	912.551537161079	1182.043982454806	177.838899794300	999.468733983906	905.012851522219	193.934408092334	927.812487586553	1163.199621386923	830.122686971770	1137.799942172807	981.306813709374	745.816523778440	1034.214237629616	784.534437428618	341.670900599305	1002.422437670380	698.388055111389	288.670993925781	1094.289773562322	673.039606299138	352.662812748476	1149.134488697252	549.592489736720	340.637662108367	1106.423665826829	436.892023198430	360.034986363442	1033.222048311091	370.353206008285	286.559311493808	1075.203133208611	314.196438336037	367.696107922883	946.965139590203	78.875481356975	369.835394574548	1029.768666723299	61.229193352016	300.221841064957	1128.924625867436	124.922048553805	334.644292650053	1234.303834145132	88.442578520372	325.813620196646	940.524044482573	719.661380413476	613.725782594445	837.818020801327	659.000464700690	663.420449387391	904.202058736000	594.101588315990	585.786951570524	886.083224921945	501.694471904034	609.692010454132	834.756681931722	416.365788566793	569.010458965266	759.107776517164	352.646219310431	647.326610400333	809.135815690655	279.967333105478	564.232963407345	673.734891158031	54.413729401681	520.862172212439	749.764667134437	25.355640696873	596.161494425329	856.470273275534	87.017738527156	575.290447657737	959.996602235150	44.685895339638	578.324033897931	
